# xmcd
#
# Track frame offsets:
#	150
#	11537
#	23675
#	36462
#	49117
#	60495
#	73495
#	87867
#	97542
#	107610
#	116675
#	128585
#	138382
#	149927
#	160620
#	171627
#	182950
#	195032
#	208095
#	219202
#	231320
#	242375
#	255125
#	266830
#	276822
#	289702
#	302372
#	315455
#	327945
#	339637
#
# Disc length: 4677 seconds
#
# Revision: 1
# Processed by: cddbd v1.4PL0 Copyright (c) Steve Scherf et al.
# Submitted via: audiograbber 1.80
#
DISCID=ab12431e
DTITLE=jean shepard - the melody ranch girl disc 4
DYEAR=1900
DGENRE=
TTITLE0=i don't apologize for loving you 1960
TTITLE1=mockin' bird hill 1960
TTITLE2=another 1960
TTITLE3=blues stay away from me 1960
TTITLE4=if you haven't, you can't feel the way i go 1960
TTITLE5=under your spell again 1960
TTITLE6=the waltz of the angels 1960
TTITLE7=one white rose 1960
TTITLE8=big midnight special 1960
TTITLE9=you're the only good thing (that's happened to me) 1960
TTITLE10=the color song (i lost my love) 1960
TTITLE11=got you on my mind 1960
TTITLE12=for the children's sake 1960
TTITLE13=nobody but myself 1996
TTITLE14=no one knows 1960
TTITLE15=would you be satisfied? 1961
TTITLE16=if you wire losing him to me 1961
TTITLE17=second best 1961
TTITLE18=two voices, two shadows, two faces 1961
TTITLE19=go on with your dancing 1961
TTITLE20=i can't seem to say goodbye 1996
TTITLE21=so wrong, so fast 1961
TTITLE22=how long does it hurt (when a heart breaks) 1961
TTITLE23=i don't remember 1961
TTITLE24=leave me alone 1961
TTITLE25=the biggest cry 1961
TTITLE26='ve got to talk to mary 1961
TTITLE27=it's torture 1962
TTITLE28=your conscience or your heart 1961
TTITLE29=i turned right around and went home 1996
EXTD=
EXTT0=
EXTT1=
EXTT2=
EXTT3=
EXTT4=
EXTT5=
EXTT6=
EXTT7=
EXTT8=
EXTT9=
EXTT10=
EXTT11=
EXTT12=
EXTT13=
EXTT14=
EXTT15=
EXTT16=
EXTT17=
EXTT18=
EXTT19=
EXTT20=
EXTT21=
EXTT22=
EXTT23=
EXTT24=
EXTT25=
EXTT26=
EXTT27=
EXTT28=
EXTT29=
PLAYORDER=
